<?xml version="1.0" standalone="no"?>
<!DOCTYPE svg PUBLIC "-//W3C//DTD SVG 20010904//EN"
 "http://www.w3.org/TR/2001/REC-SVG-20010904/DTD/svg10.dtd">
<svg version="1.0" xmlns="http://www.w3.org/2000/svg"
 width="980.000000pt" height="980.000000pt" viewBox="0 0 980.000000 980.000000"
 preserveAspectRatio="xMidYMid meet">

<g transform="translate(0.000000,980.000000) scale(0.100000,-0.100000)"
fill="#000000" stroke="none">
<path d="M7439 7956 c-2 -2 -215 -61 -474 -130 -258 -69 -589 -157 -735 -196
-224 -60 -490 -132 -895 -240 -44 -12 -195 -52 -335 -90 -255 -68 -381 -102
-1400 -375 -300 -80 -680 -182 -845 -226 -165 -44 -417 -112 -560 -150 -310
-83 -313 -84 -322 -117 -7 -29 -5 -38 101 -417 l80 -290 6 -1855 5 -1855 22
-40 c26 -50 65 -86 120 -114 l42 -21 2738 0 c1914 0 2750 3 2777 11 48 13 123
82 147 134 18 38 19 120 19 1886 0 1776 -1 1847 -18 1862 -17 16 -216 17
-2657 17 -1451 0 -2636 2 -2633 5 4 4 274 78 678 186 105 27 322 85 1100 294
151 41 435 116 630 169 195 52 474 127 620 166 146 39 456 122 690 185 234 62
520 139 635 170 116 31 327 88 469 126 142 38 265 74 272 80 7 6 16 18 19 28
7 24 -192 761 -212 783 -14 16 -72 25 -84 14z m-419 -413 c63 -76 127 -151
141 -168 147 -168 191 -225 176 -225 -2 0 -147 -38 -322 -85 -175 -47 -322
-85 -328 -85 -5 0 -17 9 -26 19 -157 184 -410 488 -413 496 -2 7 607 181 647
184 6 1 62 -61 125 -136z m-1226 -483 c119 -140 216 -257 216 -260 0 -6 -661
-183 -665 -178 -1 2 -45 53 -96 114 -234 276 -334 396 -337 403 -1 4 50 22
115 39 65 18 208 57 318 87 110 30 208 53 217 52 9 -1 114 -117 232 -257z
m-1330 -360 c140 -166 211 -257 203 -261 -7 -4 -66 -21 -132 -39 -66 -17 -154
-41 -195 -52 -256 -69 -326 -86 -331 -80 -3 4 -93 111 -199 237 -106 127 -202
240 -214 253 -27 31 -26 31 163 81 86 23 228 61 316 85 88 24 163 40 167 37 3
-3 103 -121 222 -261z m-1394 -285 c89 -104 188 -222 220 -261 l59 -71 -177
-48 c-97 -25 -206 -55 -242 -65 -166 -47 -251 -65 -258 -54 -4 6 -101 122
-217 259 -115 137 -210 251 -210 254 0 2 23 10 50 18 28 7 174 47 325 88 151
40 278 73 282 72 4 -1 80 -87 168 -192z m350 -795 c0 -10 -204 -449 -261 -562
l-29 -58 -340 0 c-187 0 -340 4 -340 8 0 8 238 520 274 590 l17 32 339 0 c217
0 340 -4 340 -10z m1380 1 c0 -8 -95 -215 -223 -483 l-66 -138 -340 0 c-188 0
-341 4 -341 9 0 7 254 553 281 603 9 17 30 18 349 18 189 0 340 -4 340 -9z
m1379 -3 c0 -7 -64 -148 -142 -313 l-143 -300 -342 -3 c-217 -1 -342 1 -342 7
0 6 27 68 61 138 34 70 87 185 119 254 32 70 70 150 84 178 l26 51 340 0 c266
0 340 -3 339 -12z m1380 0 c0 -7 -64 -148 -143 -313 l-142 -300 -342 -3 c-207
-1 -342 1 -342 7 0 9 90 205 230 499 l59 122 340 0 c267 0 341 -3 340 -12z"/>
</g>
</svg>
